# xmcd
#
# Track frame offsets: 
#        150
#        17103
#        31190
#        45555
#        61208
#        84770
#        101432
#        115131
#        126008
#        141669
#        156466
#        172975
#        187702
#
# Disc length: 2640 seconds
#
# Revision: 0
# Processed by: cddbd v1.5.1PL0 Copyright (c) Steve Scherf et al.
# Submitted via: ExactAudioCopy v0.95a5
#
DISCID=9e0a4e0d
DTITLE=Lazy Jumpers - Bad Luck
DYEAR=2005
DGENRE=Blues
TTITLE0=Gonna get loaded
TTITLE1=Dr. Dixon's brew
TTITLE2=Jumpin' lazy
TTITLE3=This time I'm gone
TTITLE4=She's the one for me
TTITLE5=One taste
TTITLE6=Something's changed
TTITLE7=Tell me pretty baby
TTITLE8=London 134
TTITLE9=Too many times
TTITLE10=Still I'm here
TTITLE11=I'm gonna show You how to love me
TTITLE12=Bad luck (Turn my back on you)
EXTD=
EXTT0=
EXTT1=
EXTT2=
EXTT3=
EXTT4=
EXTT5=
EXTT6=
EXTT7=
EXTT8=
EXTT9=
EXTT10=
EXTT11=
EXTT12=
PLAYORDER=
